<svg xmlns="http://www.w3.org/2000/svg" xmlns:xlink="http://www.w3.org/1999/xlink" viewBox="0 0 24 24.8"><defs><style>.cls-1{fill:none;}.cls-2{fill:#f7f8f9;}.cls-3{fill:#828283;}.cls-4{clip-path:url(#clip-path);}</style><clipPath id="clip-path" transform="translate(0 0)"><path class="cls-1" d="M0,12A12,12,0,1,0,12,0,12,12,0,0,0,0,12"/></clipPath></defs><g id="Layer_2" data-name="Layer 2"><g id="Layer_1-2" data-name="Layer 1"><g id="Inactive_User_-_40px" data-name="Inactive User - 40px"><path class="cls-2" d="M12,23.7A11.7,11.7,0,1,1,23.7,12,11.72,11.72,0,0,1,12,23.7" transform="translate(0 0)"/><path class="cls-3" d="M12,1A11,11,0,1,1,1,12,11,11,0,0,1,12,1m0-1A12,12,0,1,0,24,12,12,12,0,0,0,12,0" transform="translate(0 0)"/><g class="cls-4"><path class="cls-3" d="M12,6A4.07,4.07,0,0,1,16.06,10c0,1.38-1.39,2.66-2.57,3.41l-1.1.71,1.28.31c4.32,1,8.09,4.77,8.33,9.16H2c.24-4.39,3.91-8.11,8.23-9.16l1.28-.31-1.1-.71c-1.18-.75-2.47-2-2.47-3.41A4.07,4.07,0,0,1,12,6M12,4.8a4.92,4.92,0,0,0-2.66,9.07A11.25,11.25,0,0,0,.74,24.8H23.26a11.25,11.25,0,0,0-8.6-10.93A4.92,4.92,0,0,0,12,4.8" transform="translate(0 0)"/></g></g></g></g></svg>