<svg xmlns="http://www.w3.org/2000/svg" viewBox="0 0 171 10.56"><defs><style>.cls-1{fill:#00baf2;}.cls-2{fill:#20336b;}.cls-3{fill:#f79c34;}.cls-3,.cls-4{fill-rule:evenodd;}.cls-4{fill:#333e47;}.cls-5{fill:#5f6368;}.cls-6{fill:#4285f4;}.cls-7{fill:#34a853;}.cls-8{fill:#fbbc04;}.cls-9{fill:#ea4335;}.cls-10{fill:#673ab7;}.cls-11{fill:#fff;}.cls-12{fill:#212121;}</style></defs><g id="Layer_2" data-name="Layer 2"><g id="Layer_1-2" data-name="Layer 1"><g id="payment_logo"><path class="cls-1" d="M113.11,2.77a2,2,0,0,0-1.88-1.34h0a2,2,0,0,0-1.43.62,2,2,0,0,0-1.44-.62h0a2,2,0,0,0-1.3.48V1.76a.29.29,0,0,0-.29-.27H105.4a.29.29,0,0,0-.3.3V9a.29.29,0,0,0,.3.29h1.33a.29.29,0,0,0,.29-.25V3.82a.49.49,0,0,1,.46-.45h.25a.5.5,0,0,1,.28.11.5.5,0,0,1,.18.39V9.05a.3.3,0,0,0,.3.29h1.33a.3.3,0,0,0,.3-.28V3.87a.49.49,0,0,1,.21-.42.61.61,0,0,1,.25-.08h.24a.49.49,0,0,1,.47.5V9a.29.29,0,0,0,.3.29h1.33a.3.3,0,0,0,.3-.27V3.39a1.63,1.63,0,0,0-.11-.62Zm-9-1.26h-.76V.27h0a.27.27,0,0,0-.27-.27h0c-.85.24-.68,1.41-2.22,1.51h-.22a.31.31,0,0,0-.23.29V3.14a.3.3,0,0,0,.3.29h.8V9.09a.29.29,0,0,0,.29.29H103a.29.29,0,0,0,.29-.29V3.43h.75a.3.3,0,0,0,.3-.29V1.8a.29.29,0,0,0-.3-.29Z"/><path class="cls-2" d="M99.28,1.51H98a.29.29,0,0,0-.29.29V4.56a.33.33,0,0,1-.32.31h-.55a.31.31,0,0,1-.32-.31V1.8a.29.29,0,0,0-.3-.29H94.84a.29.29,0,0,0-.3.29v3a1.89,1.89,0,0,0,2,2h.89a.31.31,0,0,1,0,.62h-2a.3.3,0,0,0-.3.3V9.06a.3.3,0,0,0,.3.29h2.18a1.89,1.89,0,0,0,2-2V1.8a.29.29,0,0,0-.3-.29Zm-7.58,0H89.84a.28.28,0,0,0-.29.27v.52h0V3a.3.3,0,0,0,.31.3h1.77a.31.31,0,0,1,.26.28v.17a.28.28,0,0,1-.26.28h-.87a1.85,1.85,0,0,0-2,1.85V7.47a1.75,1.75,0,0,0,1.87,1.84h2.41a.76.76,0,0,0,.79-.73V3.52c0-1.23-.63-2-2.14-2Zm.21,5.56v.21a.07.07,0,0,1,0,0,.09.09,0,0,1,0,0,.32.32,0,0,1-.3.2H91a.31.31,0,0,1-.32-.3V7h0V6.15h0A.31.31,0,0,1,91,5.86h.55a.3.3,0,0,1,.32.29v.93ZM86.49,1.51H83.58a.29.29,0,0,0-.29.29V3.11h0V9.05a.28.28,0,0,0,.27.29h1.36a.29.29,0,0,0,.29-.29V7h1.27A1.73,1.73,0,0,0,88.3,5.2V3.32a1.73,1.73,0,0,0-1.81-1.81ZM86.37,4v.83a.31.31,0,0,1-.31.31h-.84V3.44h.84a.31.31,0,0,1,.31.31V4Z"/><path class="cls-3" d="M141.39,8.52a11.83,11.83,0,0,1-6.68,2,12.1,12.1,0,0,1-8.16-3.11c-.17-.15,0-.36.18-.24a16.47,16.47,0,0,0,8.17,2.16,16.22,16.22,0,0,0,6.23-1.27c.31-.13.56.2.26.42Z"/><path class="cls-3" d="M142.15,7.66c-.24-.29-1.53-.14-2.11-.07-.18,0-.21-.13,0-.24a3.26,3.26,0,0,1,2.93-.28,3.2,3.2,0,0,1-1,2.76c-.15.12-.29.06-.23-.11.22-.54.71-1.76.48-2.06Z"/><path class="cls-4" d="M166.36,8.4V8c0-.1,0-.17.16-.16a2.66,2.66,0,0,0,.69,0,.78.78,0,0,0,.56-.5c.16-.36.26-.65.33-.84l-2-5c0-.09,0-.24.12-.24h.7a.21.21,0,0,1,.22.17l1.45,4,1.39-4a.21.21,0,0,1,.22-.17h.66c.16,0,.15.15.12.24l-2,5.11c-.25.69-.6,1.77-1.37,2a2,2,0,0,1-1.16-.06.22.22,0,0,1-.1-.19ZM158.15,2c1.09,0,1.39.86,1.39,1.85a2.19,2.19,0,0,1-.46,1.6,1.26,1.26,0,0,1-1,.32,2.39,2.39,0,0,1-1.27-.48V2.48A2.31,2.31,0,0,1,158.15,2Zm-1.49,6.56H156a.17.17,0,0,1-.17-.16V1.51a.17.17,0,0,1,.17-.16h.51a.19.19,0,0,1,.19.16l.05.37a2.63,2.63,0,0,1,1.67-.69c1.63,0,2.16,1.34,2.16,2.73s-.81,2.7-2.2,2.7A2.35,2.35,0,0,1,156.83,6V8.41a.16.16,0,0,1-.17.16Zm8.77-2.25a.18.18,0,0,1-.17.17h-.49a.2.2,0,0,1-.2-.17l0-.33a2.64,2.64,0,0,1-.8.47,2,2,0,0,1-1.82-.08,1.45,1.45,0,0,1-.63-1.25,1.52,1.52,0,0,1,.39-1.07,2,2,0,0,1,1.5-.58,4.66,4.66,0,0,1,1.32.18V3c0-.69-.29-1-1-1a4.89,4.89,0,0,0-1.65.28.16.16,0,0,1-.16-.17V1.73a.25.25,0,0,1,.16-.21,5,5,0,0,1,1.74-.34c.87,0,1.91.2,1.91,1.54v3.6Zm-1-1v-1a5.23,5.23,0,0,0-1.09-.12,1.25,1.25,0,0,0-.9.28.85.85,0,0,0-.2.58.78.78,0,0,0,.31.68,1.27,1.27,0,0,0,1,0,2.22,2.22,0,0,0,.86-.44ZM125.91,6.61a.2.2,0,0,1-.23,0,2.09,2.09,0,0,1-.55-.64,1.92,1.92,0,0,1-1.59.7,1.37,1.37,0,0,1-1.44-1.5,1.63,1.63,0,0,1,1-1.57,7.05,7.05,0,0,1,1.81-.34V3.16a1.28,1.28,0,0,0-.11-.7.64.64,0,0,0-.54-.25.74.74,0,0,0-.78.58.2.2,0,0,1-.16.18l-.94-.1a.18.18,0,0,1-.14-.21,1.94,1.94,0,0,1,2.11-1.47h.08a2.15,2.15,0,0,1,1.41.48,2,2,0,0,1,.43,1.66v1.5a1.29,1.29,0,0,0,.36.89.18.18,0,0,1,0,.25l-.74.64Zm-1-2.35a1.91,1.91,0,0,1-.18,1,.76.76,0,0,1-.66.43c-.37,0-.59-.28-.59-.7,0-.82.74-1,1.43-1v.2Zm13.59,2.35a.18.18,0,0,1-.22,0,2.09,2.09,0,0,1-.55-.64,1.92,1.92,0,0,1-1.59.7,1.37,1.37,0,0,1-1.44-1.5,1.63,1.63,0,0,1,1-1.57,7.05,7.05,0,0,1,1.81-.34V3.16a1.28,1.28,0,0,0-.11-.7.64.64,0,0,0-.54-.25.74.74,0,0,0-.78.58A.2.2,0,0,1,136,3l-.94-.1a.19.19,0,0,1-.14-.21A1.94,1.94,0,0,1,137,1.19h.08a2.15,2.15,0,0,1,1.41.48,2,2,0,0,1,.43,1.66v1.5a1.29,1.29,0,0,0,.36.89.18.18,0,0,1,0,.25l-.74.64Zm-1-2.35a1.91,1.91,0,0,1-.18,1,.76.76,0,0,1-.66.43c-.37,0-.59-.28-.59-.7,0-.82.74-1,1.43-1v.2Zm12.83,2.36h-1a.18.18,0,0,1-.17-.17V1.5a.18.18,0,0,1,.18-.16h.9a.19.19,0,0,1,.17.14v.76h0a1.3,1.3,0,0,1,1.31-1,1.25,1.25,0,0,1,1.12.58,3.17,3.17,0,0,1,.25,1.54V6.47a.17.17,0,0,1-.18.15h-1a.17.17,0,0,1-.17-.15V3.79c0-.54.06-1.34-.6-1.34a.64.64,0,0,0-.56.4,2.27,2.27,0,0,0-.15.94V6.45a.19.19,0,0,1-.19.17Zm-4-4.37c-.71,0-.76,1-.76,1.57s0,1.89.75,1.89.78-1,.78-1.68A4.83,4.83,0,0,0,147,2.72a.6.6,0,0,0-.63-.47Zm0-1c1.43,0,2.2,1.23,2.2,2.78s-.86,2.71-2.2,2.71S144.16,5.5,144.16,4s.77-2.73,2.17-2.73Zm-17.8,5.38h-1a.17.17,0,0,1-.17-.16V1.52a.18.18,0,0,1,.19-.18h.89a.19.19,0,0,1,.18.17v.64h0a1.26,1.26,0,0,1,1.26-.91,1.27,1.27,0,0,1,1.25.91,1.38,1.38,0,0,1,1.33-.91,1.35,1.35,0,0,1,1.12.54,2.67,2.67,0,0,1,.24,1.55V6.45a.19.19,0,0,1-.19.17h-1a.17.17,0,0,1-.17-.17V3.83a7.17,7.17,0,0,0,0-.93.5.5,0,0,0-.57-.42.63.63,0,0,0-.57.4,3,3,0,0,0-.09,1V6.45a.18.18,0,0,1-.19.17h-1a.18.18,0,0,1-.17-.17V3.83c0-.55.09-1.36-.59-1.36s-.67.79-.67,1.36V6.45a.18.18,0,0,1-.19.17Zm11.55-4.41v-.7a.17.17,0,0,1,.18-.18h3.16a.17.17,0,0,1,.18.18v.6a.93.93,0,0,1-.24.45L141.73,4.9a3.45,3.45,0,0,1,1.8.38.35.35,0,0,1,.17.28v.75a.18.18,0,0,1-.24.17,3.64,3.64,0,0,0-3.34,0c-.11.06-.22-.06-.22-.16V5.6a.87.87,0,0,1,.11-.48l1.9-2.73h-1.65a.17.17,0,0,1-.18-.18Z"/><path class="cls-5" d="M11.17,4.58V7.33H10.3V.54h2.31a2.11,2.11,0,0,1,1.5.59,1.87,1.87,0,0,1,.62,1.43A1.88,1.88,0,0,1,14.11,4a2.07,2.07,0,0,1-1.49.58Zm0-3.2V3.75h1.46a1.14,1.14,0,0,0,.86-.35,1.17,1.17,0,0,0,0-1.64l0,0a1.11,1.11,0,0,0-.86-.36Zm5.57,1.16a2.18,2.18,0,0,1,1.53.51,1.86,1.86,0,0,1,.56,1.42V7.33H18V6.68h0a1.68,1.68,0,0,1-1.44.8A1.9,1.9,0,0,1,15.23,7a1.47,1.47,0,0,1-.51-1.14,1.4,1.4,0,0,1,.54-1.15,2.3,2.3,0,0,1,1.46-.43A2.69,2.69,0,0,1,18,4.59v-.2a1,1,0,0,0-.36-.77,1.29,1.29,0,0,0-.84-.32,1.36,1.36,0,0,0-1.16.62l-.77-.48a2.13,2.13,0,0,1,1.87-.9ZM15.62,5.91a.72.72,0,0,0,.28.57,1.14,1.14,0,0,0,.68.23,1.39,1.39,0,0,0,1-.41,1.26,1.26,0,0,0,.43-1A1.75,1.75,0,0,0,16.86,5a1.51,1.51,0,0,0-.89.25A.77.77,0,0,0,15.62,5.91Zm8-3.22L20.7,9.38h-.9L20.89,7,19,2.69h1L21.3,6h0l1.35-3.34Z"/><path class="cls-6" d="M7.64,4a5.16,5.16,0,0,0-.06-.79H3.9V4.7H6a1.81,1.81,0,0,1-.78,1.18v1H6.48A3.8,3.8,0,0,0,7.64,4Z"/><path class="cls-7" d="M3.9,7.8a3.74,3.74,0,0,0,2.58-.94l-1.25-1A2.36,2.36,0,0,1,1.71,4.65H.42v1A3.89,3.89,0,0,0,3.9,7.8Z"/><path class="cls-8" d="M1.71,4.65a2.4,2.4,0,0,1,0-1.5v-1H.42a3.86,3.86,0,0,0,0,3.5Z"/><path class="cls-9" d="M3.9,1.54a2.09,2.09,0,0,1,1.5.59L6.51,1A3.73,3.73,0,0,0,3.9,0,3.89,3.89,0,0,0,.42,2.15l1.29,1A2.33,2.33,0,0,1,3.9,1.54Z"/><path class="cls-10" d="M37.34,0A4.69,4.69,0,1,0,42,4.69,4.69,4.69,0,0,0,37.34,0Z"/><path class="cls-11" d="M39.49,3.42v.16a.14.14,0,0,1,0,.11.13.13,0,0,1-.1,0h-.49l-.07,0a.14.14,0,0,0,0,.07V7.63a.15.15,0,0,1,0,.1.12.12,0,0,1-.11,0h-.39a.12.12,0,0,1-.11,0,.13.13,0,0,1,0-.1V6.25h0a.58.58,0,0,1-.26.23.94.94,0,0,1-.43.08h-.22a1.35,1.35,0,0,1-.46-.07,1,1,0,0,1-.59-.59A1.3,1.3,0,0,1,36,5.44V3.81s0-.05,0-.06a0,0,0,0,0,0,0h-.43a.11.11,0,0,1-.1,0,.12.12,0,0,1,0-.11V3.26a.11.11,0,0,1,0-.1.13.13,0,0,1,.1,0h2.2a5.82,5.82,0,0,1-.46-.53A6.22,6.22,0,0,1,36.84,2l-.21-.31-.21-.31a.14.14,0,0,1,0-.06.13.13,0,0,1,0-.06.11.11,0,0,1,0-.08.1.1,0,0,1,.08,0H37a.21.21,0,0,1,.12,0,.3.3,0,0,1,.08.08l.53.86.53.86.09.09a.17.17,0,0,0,.11,0h.94a.13.13,0,0,1,.1,0,.11.11,0,0,1,0,.1v.16Z"/><path class="cls-10" d="M38,3.72H36.79a.08.08,0,0,0-.06,0,.14.14,0,0,0,0,.07V5.37a.6.6,0,0,0,.14.43.58.58,0,0,0,.43.15h.2a.77.77,0,0,0,.27,0,.52.52,0,0,0,.19-.12.62.62,0,0,0,.12-.19.87.87,0,0,0,0-.25V3.81a.14.14,0,0,0,0-.07Z"/><path class="cls-12" d="M45.55,5.48V7.43h-.91V2.17h2a2,2,0,0,1,1.4.46,1.56,1.56,0,0,1,.52,1.21,1.5,1.5,0,0,1-.51,1.21,2.11,2.11,0,0,1-1.42.43Zm0-.74h1.1a1,1,0,0,0,.74-.23.84.84,0,0,0,.26-.66.93.93,0,0,0-.26-.68,1,1,0,0,0-.72-.26H45.55V4.74Z"/><path class="cls-12" d="M50.22,4a1.35,1.35,0,0,1,1.09-.5c.83,0,1.25.47,1.26,1.43V7.43H51.7V4.91a.75.75,0,0,0-.18-.57A.69.69,0,0,0,51,4.17a.83.83,0,0,0-.79.47V7.43h-.88V1.88h.88V4Z"/><path class="cls-12" d="M53.37,5.44a2.37,2.37,0,0,1,.23-1,1.61,1.61,0,0,1,.64-.7,1.74,1.74,0,0,1,.94-.25A1.72,1.72,0,0,1,56.47,4,2,2,0,0,1,57,5.31v.2a2.33,2.33,0,0,1-.22,1,1.65,1.65,0,0,1-.63.7,1.81,1.81,0,0,1-1,.25A1.68,1.68,0,0,1,53.87,7a2.13,2.13,0,0,1-.5-1.47Zm.88.07a1.56,1.56,0,0,0,.25,1,.79.79,0,0,0,.69.34.79.79,0,0,0,.69-.35,1.69,1.69,0,0,0,.25-1,1.54,1.54,0,0,0-.26-.94.82.82,0,0,0-.69-.35.83.83,0,0,0-.68.34A1.71,1.71,0,0,0,54.25,5.51Z"/><path class="cls-12" d="M58.63,3.52l0,.45a1.4,1.4,0,0,1,1.14-.52c.81,0,1.23.46,1.24,1.4V7.43h-.88V4.9A.79.79,0,0,0,60,4.35a.67.67,0,0,0-.52-.18.86.86,0,0,0-.8.48V7.43h-.87V3.52Z"/><path class="cls-12" d="M63.73,7.5A1.79,1.79,0,0,1,62.38,7a1.89,1.89,0,0,1-.52-1.4V5.47a2.38,2.38,0,0,1,.22-1,1.79,1.79,0,0,1,.64-.72,1.66,1.66,0,0,1,.91-.25A1.53,1.53,0,0,1,64.86,4,2.16,2.16,0,0,1,65.3,5.4v.35H62.74a1.19,1.19,0,0,0,.33.77,1,1,0,0,0,.71.28,1.17,1.17,0,0,0,1-.49l.48.45a1.6,1.6,0,0,1-.63.55A2,2,0,0,1,63.73,7.5Zm-.11-3.35a.74.74,0,0,0-.58.26,1.25,1.25,0,0,0-.28.7h1.67V5.05a1.11,1.11,0,0,0-.23-.67A.75.75,0,0,0,63.62,4.15Z"/><path class="cls-12" d="M67.05,5.48V7.43h-.91V2.17h2a2,2,0,0,1,1.4.46,1.56,1.56,0,0,1,.52,1.21,1.5,1.5,0,0,1-.51,1.21,2.11,2.11,0,0,1-1.42.43Zm0-.74h1.1a1,1,0,0,0,.74-.23.84.84,0,0,0,.26-.66.93.93,0,0,0-.26-.68,1,1,0,0,0-.72-.26H67.05V4.74Z"/><path class="cls-12" d="M72.53,7.5A1.79,1.79,0,0,1,71.18,7a1.89,1.89,0,0,1-.52-1.4V5.47a2.38,2.38,0,0,1,.22-1,1.72,1.72,0,0,1,.64-.72,1.66,1.66,0,0,1,.91-.25A1.53,1.53,0,0,1,73.66,4,2.16,2.16,0,0,1,74.1,5.4v.35H71.54a1.19,1.19,0,0,0,.33.77.93.93,0,0,0,.71.28,1.17,1.17,0,0,0,1-.49l.47.45a1.5,1.5,0,0,1-.62.55A2,2,0,0,1,72.53,7.5Zm-.11-3.35a.74.74,0,0,0-.58.26,1.25,1.25,0,0,0-.28.7h1.67V5.05A1.05,1.05,0,0,0,73,4.38.72.72,0,0,0,72.42,4.15Z"/></g></g></g></svg>