<svg xmlns="http://www.w3.org/2000/svg" viewBox="0 0 232.73 22.57"><defs><style>.cls-1{fill:#c41102;}.cls-2{fill:#f01102;}.cls-3{fill:#881102;}.cls-4{fill:#fff;}</style></defs><g id="Layer_2" data-name="Layer 2"><g id="Layer_1-2" data-name="Layer 1"><g id="red-ribbon"><polygon class="cls-1" points="26.89 22.57 0 22.57 7.13 13.78 0 5 26.89 5 26.89 22.57"/><polygon class="cls-1" points="205.84 22.57 232.73 22.57 225.6 13.78 232.73 5 205.84 5 205.84 22.57"/><rect class="cls-2" x="20.11" width="192.39" height="17.57"/><polygon class="cls-3" points="20.11 17.57 26.89 22.57 26.89 17.57 20.11 17.57"/><polygon class="cls-3" points="212.5 17.57 205.84 22.57 205.84 17.57 212.5 17.57"/></g><path class="cls-4" d="M36.06,11.19a2.33,2.33,0,0,1-1-.74,2,2,0,0,1-.39-1.18h1.82a.91.91,0,0,0,.27.59.88.88,0,0,0,.6.21.9.9,0,0,0,.6-.18A.63.63,0,0,0,38,9a1.28,1.28,0,0,0-.43-.28,5,5,0,0,0-.73-.25A8.23,8.23,0,0,1,35.77,8,2.17,2.17,0,0,1,35,7.41a1.79,1.79,0,0,1-.31-1.07,1.85,1.85,0,0,1,.71-1.54,3.42,3.42,0,0,1,3.72,0,2,2,0,0,1,.76,1.55H38.06a.7.7,0,0,0-.25-.54.87.87,0,0,0-.59-.19.75.75,0,0,0-.5.16.62.62,0,0,0-.19.48.61.61,0,0,0,.32.53,6.4,6.4,0,0,0,1,.41A8.83,8.83,0,0,1,39,7.64a2,2,0,0,1,.73.61,1.6,1.6,0,0,1,.31,1,2.05,2.05,0,0,1-.3,1.09,2.27,2.27,0,0,1-.89.78,3,3,0,0,1-1.37.29A3.77,3.77,0,0,1,36.06,11.19Z"/><path class="cls-4" d="M41.07,7.06a2.33,2.33,0,0,1,1-1,2.88,2.88,0,0,1,1.45-.35,2.76,2.76,0,0,1,1.76.55,2.53,2.53,0,0,1,.92,1.55H44.37a.87.87,0,0,0-.89-.64.91.91,0,0,0-.75.36,1.73,1.73,0,0,0-.28,1,1.72,1.72,0,0,0,.28,1,.92.92,0,0,0,.75.37.88.88,0,0,0,.89-.64h1.82a2.58,2.58,0,0,1-.93,1.54,2.74,2.74,0,0,1-1.75.56,3,3,0,0,1-1.45-.35,2.44,2.44,0,0,1-1-1,3.11,3.11,0,0,1-.36-1.52A3.08,3.08,0,0,1,41.07,7.06Z"/><path class="cls-4" d="M47.09,7.06a2.33,2.33,0,0,1,.88-1,2.27,2.27,0,0,1,1.25-.35,2.16,2.16,0,0,1,1,.24,1.8,1.8,0,0,1,.68.63V5.79h1.71v5.58H50.94v-.79a1.83,1.83,0,0,1-.69.63,2.16,2.16,0,0,1-1,.24A2.27,2.27,0,0,1,48,11.09a2.42,2.42,0,0,1-.88-1,3.32,3.32,0,0,1-.33-1.51A3.26,3.26,0,0,1,47.09,7.06Zm3.5.51a1.21,1.21,0,0,0-1.73,0,1.37,1.37,0,0,0-.36,1,1.4,1.4,0,0,0,.36,1,1.13,1.13,0,0,0,.86.38,1.19,1.19,0,0,0,.87-.37,1.44,1.44,0,0,0,.35-1A1.41,1.41,0,0,0,50.59,7.57Z"/><path class="cls-4" d="M58.86,6.36a2.48,2.48,0,0,1,.58,1.75v3.26h-1.7v-3a1.22,1.22,0,0,0-.29-.87,1,1,0,0,0-.78-.31,1,1,0,0,0-.78.31,1.22,1.22,0,0,0-.29.87v3H53.89V5.79H55.6v.74a1.76,1.76,0,0,1,.7-.59,2.31,2.31,0,0,1,1-.21A2,2,0,0,1,58.86,6.36Z"/><path class="cls-4" d="M62.74,7.06a2.33,2.33,0,0,1,.88-1,2.27,2.27,0,0,1,1.25-.35,2.16,2.16,0,0,1,1,.24,1.8,1.8,0,0,1,.68.63V5.79H68.3v5.58H66.59v-.79a1.83,1.83,0,0,1-.69.63,2.16,2.16,0,0,1-1,.24,2.27,2.27,0,0,1-1.24-.36,2.42,2.42,0,0,1-.88-1,3.32,3.32,0,0,1-.33-1.51A3.26,3.26,0,0,1,62.74,7.06Zm3.5.51a1.21,1.21,0,0,0-1.73,0,1.37,1.37,0,0,0-.36,1,1.4,1.4,0,0,0,.36,1,1.13,1.13,0,0,0,.86.38,1.19,1.19,0,0,0,.87-.37,1.44,1.44,0,0,0,.35-1A1.41,1.41,0,0,0,66.24,7.57Z"/><path class="cls-4" d="M74.51,6.36a2.48,2.48,0,0,1,.58,1.75v3.26h-1.7v-3a1.17,1.17,0,0,0-.29-.87,1,1,0,0,0-.78-.31,1,1,0,0,0-.78.31,1.22,1.22,0,0,0-.29.87v3H69.54V5.79h1.71v.74a1.83,1.83,0,0,1,.7-.59,2.31,2.31,0,0,1,1-.21A2,2,0,0,1,74.51,6.36Z"/><path class="cls-4" d="M76.27,7.06a2.33,2.33,0,0,1,.88-1,2.27,2.27,0,0,1,1.25-.35,2.14,2.14,0,0,1,1,.23,1.79,1.79,0,0,1,.71.62V4h1.71v7.4H80.12v-.8a1.82,1.82,0,0,1-.68.64,2.16,2.16,0,0,1-1,.24,2.28,2.28,0,0,1-1.25-.36,2.42,2.42,0,0,1-.88-1,3.32,3.32,0,0,1-.33-1.51A3.26,3.26,0,0,1,76.27,7.06Zm3.5.51a1.21,1.21,0,0,0-1.73,0,1.37,1.37,0,0,0-.36,1,1.4,1.4,0,0,0,.36,1,1.13,1.13,0,0,0,.86.38,1.19,1.19,0,0,0,.87-.37,1.44,1.44,0,0,0,.35-1A1.41,1.41,0,0,0,79.77,7.57Z"/><path class="cls-4" d="M87.59,6a2.15,2.15,0,0,1,1-.24,2.25,2.25,0,0,1,1.25.35,2.42,2.42,0,0,1,.89,1,3.39,3.39,0,0,1,.32,1.51,3.46,3.46,0,0,1-.32,1.51,2.51,2.51,0,0,1-.89,1,2.25,2.25,0,0,1-1.25.36,2.08,2.08,0,0,1-1-.24,1.93,1.93,0,0,1-.7-.62V14H85.19V5.79H86.9v.79A1.91,1.91,0,0,1,87.59,6ZM89,7.56a1.19,1.19,0,0,0-.88-.36,1.12,1.12,0,0,0-.86.37,1.37,1.37,0,0,0-.36,1,1.4,1.4,0,0,0,.36,1,1.19,1.19,0,0,0,1.73,0,1.4,1.4,0,0,0,.36-1A1.41,1.41,0,0,0,89,7.56Z"/><path class="cls-4" d="M92,7.06a2.33,2.33,0,0,1,.88-1,2.27,2.27,0,0,1,1.25-.35,2.19,2.19,0,0,1,1,.24,1.8,1.8,0,0,1,.68.63V5.79h1.71v5.58H95.82v-.79a1.91,1.91,0,0,1-.69.63,2.19,2.19,0,0,1-1,.24,2.27,2.27,0,0,1-1.24-.36,2.42,2.42,0,0,1-.88-1,3.32,3.32,0,0,1-.33-1.51A3.26,3.26,0,0,1,92,7.06Zm3.5.51a1.21,1.21,0,0,0-1.73,0,1.37,1.37,0,0,0-.36,1,1.4,1.4,0,0,0,.36,1,1.13,1.13,0,0,0,.86.38,1.19,1.19,0,0,0,.87-.37,1.44,1.44,0,0,0,.35-1A1.41,1.41,0,0,0,95.47,7.57Z"/><path class="cls-4" d="M104.47,5.79,101,14H99.13l1.28-2.84L98.14,5.79h1.91l1.29,3.49,1.28-3.49Z"/><path class="cls-4" d="M115.22,5.79l-1.51,5.58h-1.89l-.88-3.62L110,11.37h-1.88l-1.52-5.58h1.71l.79,4,.94-4h1.81l1,4,.78-4Z"/><path class="cls-4" d="M116,4.94a.86.86,0,0,1-.29-.65.88.88,0,0,1,.29-.67,1,1,0,0,1,.73-.26,1,1,0,0,1,.73.26.88.88,0,0,1,.28.67.85.85,0,0,1-.28.65,1,1,0,0,1-.73.27A1,1,0,0,1,116,4.94Zm1.58.85v5.58h-1.71V5.79Z"/><path class="cls-4" d="M121.93,9.92v1.45h-.87a2.15,2.15,0,0,1-1.45-.46,1.9,1.9,0,0,1-.52-1.48V7.21h-.68V5.79h.68V4.43h1.71V5.79h1.12V7.21H120.8V9.45a.49.49,0,0,0,.12.36.62.62,0,0,0,.4.11Z"/><path class="cls-4" d="M127.85,6.36a2.48,2.48,0,0,1,.58,1.75v3.26h-1.7v-3a1.22,1.22,0,0,0-.29-.87,1.14,1.14,0,0,0-1.56,0,1.22,1.22,0,0,0-.29.87v3h-1.71V4h1.71V6.54A1.72,1.72,0,0,1,125.3,6a2.23,2.23,0,0,1,1-.22A2,2,0,0,1,127.85,6.36Z"/><path class="cls-4" d="M137,8.37a1.71,1.71,0,0,1,.37,1.09,1.72,1.72,0,0,1-.61,1.39,2.63,2.63,0,0,1-1.72.52h-3.27v-7h3.16a2.61,2.61,0,0,1,1.68.49,1.62,1.62,0,0,1,.6,1.33,1.66,1.66,0,0,1-.32,1,1.75,1.75,0,0,1-.87.57A1.55,1.55,0,0,1,137,8.37Zm-3.52-1.18h1.12a1,1,0,0,0,.65-.19.65.65,0,0,0,.22-.54.67.67,0,0,0-.22-.55,1,1,0,0,0-.65-.19h-1.12Zm1.93,2.6a.71.71,0,0,0,.23-.56.73.73,0,0,0-.24-.58,1,1,0,0,0-.68-.21h-1.24V10h1.26A1,1,0,0,0,135.38,9.79Z"/><path class="cls-4" d="M144.41,4.35v7H142.7V8.48H140v2.89h-1.71v-7H140V7.1h2.66V4.35Z"/><path class="cls-4" d="M147.35,4.35v7h-1.71v-7Z"/><path class="cls-4" d="M156.54,4.35v7h-1.71V7.16l-1.57,4.21h-1.38L150.3,7.15v4.22h-1.71v-7h2l2,4.86,1.95-4.86Z"/><path class="cls-4" d="M161.57,4.35v4.2a1.38,1.38,0,0,0,.31,1,1.2,1.2,0,0,0,.91.34,1.22,1.22,0,0,0,.92-.34,1.38,1.38,0,0,0,.32-1V4.35h1.71V8.54a3,3,0,0,1-.4,1.59,2.59,2.59,0,0,1-1.07,1,3.41,3.41,0,0,1-1.51.33,3.22,3.22,0,0,1-1.48-.33,2.4,2.4,0,0,1-1-1,3.17,3.17,0,0,1-.38-1.59V4.35Z"/><path class="cls-4" d="M172,7.72a2.07,2.07,0,0,1-.86.82,3.13,3.13,0,0,1-1.44.31h-1.06v2.52h-1.71v-7h2.77a3.08,3.08,0,0,1,1.42.29,1.94,1.94,0,0,1,.87.8,2.36,2.36,0,0,1,.29,1.17A2.23,2.23,0,0,1,172,7.72Zm-1.7-.46a.87.87,0,0,0,.24-.65.85.85,0,0,0-.24-.65,1,1,0,0,0-.73-.23h-.93V7.49h.93A1,1,0,0,0,170.31,7.26Z"/><path class="cls-4" d="M174.89,4.35v7h-1.71v-7Z"/><path class="cls-4" d="M178.24,7.06a2.33,2.33,0,0,1,.88-1,2.25,2.25,0,0,1,1.25-.35,2.19,2.19,0,0,1,1,.24,1.8,1.8,0,0,1,.68.63V5.79h1.71v5.58h-1.71v-.79a1.86,1.86,0,0,1-.7.63,2.12,2.12,0,0,1-1,.24,2.25,2.25,0,0,1-1.24-.36,2.42,2.42,0,0,1-.88-1,3.32,3.32,0,0,1-.33-1.51A3.26,3.26,0,0,1,178.24,7.06Zm3.5.51a1.21,1.21,0,0,0-1.73,0,1.37,1.37,0,0,0-.36,1,1.4,1.4,0,0,0,.36,1,1.13,1.13,0,0,0,.86.38,1.19,1.19,0,0,0,.87-.37,1.44,1.44,0,0,0,.35-1A1.41,1.41,0,0,0,181.74,7.57Z"/><path class="cls-4" d="M187.44,6a2.12,2.12,0,0,1,1-.24,2.25,2.25,0,0,1,1.25.35,2.33,2.33,0,0,1,.88,1,3.26,3.26,0,0,1,.33,1.51,3.32,3.32,0,0,1-.33,1.51,2.42,2.42,0,0,1-.88,1,2.25,2.25,0,0,1-1.25.36,2.08,2.08,0,0,1-1-.24,1.93,1.93,0,0,1-.7-.62V14H185V5.79h1.71v.79A1.91,1.91,0,0,1,187.44,6Zm1.4,1.61A1.19,1.19,0,0,0,188,7.2a1.12,1.12,0,0,0-.86.37,1.37,1.37,0,0,0-.36,1,1.4,1.4,0,0,0,.36,1,1.19,1.19,0,0,0,1.73,0,1.4,1.4,0,0,0,.36-1A1.41,1.41,0,0,0,188.84,7.56Z"/><path class="cls-4" d="M194.23,6a2.12,2.12,0,0,1,1-.24,2.25,2.25,0,0,1,1.25.35,2.33,2.33,0,0,1,.88,1,3.26,3.26,0,0,1,.33,1.51,3.32,3.32,0,0,1-.33,1.51,2.42,2.42,0,0,1-.88,1,2.25,2.25,0,0,1-1.25.36,2.08,2.08,0,0,1-1-.24,1.93,1.93,0,0,1-.7-.62V14h-1.71V5.79h1.71v.79A1.91,1.91,0,0,1,194.23,6Zm1.4,1.61a1.19,1.19,0,0,0-.88-.36,1.12,1.12,0,0,0-.86.37,1.37,1.37,0,0,0-.36,1,1.4,1.4,0,0,0,.36,1,1.19,1.19,0,0,0,1.73,0,1.4,1.4,0,0,0,.36-1A1.41,1.41,0,0,0,195.63,7.56Z"/></g></g></svg>