<svg xmlns="http://www.w3.org/2000/svg" viewBox="0 0 150.63 28.78"><defs><style>.cls-1{fill:#f07a25;}.cls-2{fill:#0c8d48;}.cls-3,.cls-6{fill:#66686c;}.cls-3,.cls-4,.cls-5{fill-rule:evenodd;}.cls-4{fill:#0e8635;}.cls-5{fill:#e97208;}.cls-7{fill:none;stroke:#999;stroke-miterlimit:10;}</style></defs><g id="Layer_2" data-name="Layer 2"><g id="Layer_1-2" data-name="Layer 1"><g id="upi_logo"><path class="cls-1" d="M143.75,14.44l-3.11,2.9-.11-.08c.36-1.33.71-2.64,1.08-4q1.35-4.92,2.71-9.84v0a.45.45,0,0,1,.23-.39c.22,0,.21.21.29.35.46.85.81,1.76,1.35,2.57A37.13,37.13,0,0,0,148,9.61a.82.82,0,0,1,.12.41.71.71,0,0,1-.34.61c-1.35,1.26-2.66,2.54-4,3.81Z"/><path class="cls-2" d="M143.75,14.44c1.32-1.27,2.64-2.55,4-3.8a.75.75,0,0,0,.34-.62.73.73,0,0,0-.13-.4A35.92,35.92,0,0,1,146.19,6l.92-3.11c.39.74.71,1.35,1,2,.77,1.55,1.53,3.11,2.34,4.64a.87.87,0,0,1,.16.52.89.89,0,0,1-.42.76c-2.2,2-4.37,4.13-6.54,6.2a1.11,1.11,0,0,1-.54.39,18.81,18.81,0,0,0,.62-2.89Z"/><path class="cls-3" d="M94.93,10.17a1.3,1.3,0,0,1,.76,1.17,1.23,1.23,0,0,1-.15.59c-.36,1.17-.65,2.37-1,3.55a2.16,2.16,0,0,1-2.15,2l-.38,0H77.1c-.39,0-.53,0-.41-.48q1.92-6.81,3.81-13.63A.55.55,0,0,1,81,2.84h.08l15.37,0,.22,0a1,1,0,0,1,1,1,1,1,0,0,1-.09.42c-.39,1.52-.81,3-1.25,4.53a2.13,2.13,0,0,1-1.46,1.35Zm-17.55,10H78l-.54,2.27a1,1,0,0,0,0,.76.71.71,0,0,0,.62.25,1.1,1.1,0,0,0,.74-.25,1.46,1.46,0,0,0,.41-.76l.54-2.27h.59l-.55,2.32a2,2,0,0,1-.65,1.13A1.79,1.79,0,0,1,78,24a1.21,1.21,0,0,1-1-.38,1.32,1.32,0,0,1-.1-1.13l.55-2.32ZM107,8.73c1.68,0,3.35,0,5,0h.11A.8.8,0,0,0,113,8c.39-1.49.81-3,1.18-4.48a.71.71,0,0,1,.7-.69l.16,0c.27,0,.55,0,.83,0s.55,0,.82,0c.45,0,.55.11.42.55-.63,2.24-1.23,4.49-1.84,6.73s-1.2,4.32-1.77,6.49a.83.83,0,0,1-.83.81.68.68,0,0,1-.2,0c-.27,0-.55,0-.83,0l-.76,0c-.42,0-.49-.12-.38-.52.46-1.56.87-3.14,1.32-4.71.13-.45.07-.64-.47-.64q-5.11,0-10.23,0H101a.69.69,0,0,0-.69.67c-.4,1.57-.86,3.14-1.28,4.71a.56.56,0,0,1-.55.51l-.11,0-.88,0q-.45,0-.9,0c-.62,0-.52-.28-.41-.66q1-3.65,2-7.29Q99,6.41,99.83,3.35a.52.52,0,0,1,.52-.49h.08c.63,0,1.27,0,1.9,0,.44,0,.49.15.38.53-.45,1.61-.86,3.23-1.33,4.84-.12.42,0,.51.39.5,1.76,0,3.51,0,5.27,0ZM120.6,2.91h.63c.84,0,.85,0,.63.78l-3.54,12.83c-.27.95-.28.95-1.26.95-.46,0-.93,0-1.4,0s-.5-.12-.38-.53q1.68-6,3.34-12A11.5,11.5,0,0,0,119,3.63v0a.71.71,0,0,1,.94-.69h.7Zm16.3,7.82c-.48.43-1,.85-1.45,1.29L130,17.07c-.3.28-.46.33-.69-.09q-2-3.52-4.07-7l-.15-.17a1.7,1.7,0,0,0-.37.91c-.57,2-1.13,4.08-1.67,6.12a.64.64,0,0,1-.64.63h-.13c-.61-.05-1.23,0-1.84,0-.29,0-.44,0-.34-.4q1.92-6.9,3.81-13.83l.11-.13a2.25,2.25,0,0,1,.58.79c1.73,2.87,3.44,5.73,5.16,8.6.38.65.37.64,1,.14,3.11-2.65,6.21-5.3,9.33-7.93L142,3a1.77,1.77,0,0,1,0,.23,1.58,1.58,0,0,1-.16.68c-1.18,4.33-2.38,8.65-3.56,13a.57.57,0,0,1-.58.54h-.1c-.3,0-.61,0-.91,0s-.59,0-.87,0c-.51,0-.55-.15-.43-.59.54-1.89,1-3.8,1.57-5.69A.41.41,0,0,0,137,11a.32.32,0,0,0-.09-.24Zm10.71,13.18.89-3.73h2l-.13.52H149l-.22.93h1.44l-.13.53h-1.44l-.29,1.2h1.44l-.12.54h-2Zm-.06-2.82a1.19,1.19,0,0,0-.45-.33,1.43,1.43,0,0,0-.56-.11,1.63,1.63,0,0,0-1.06.4,1.81,1.81,0,0,0-.62,1,1.23,1.23,0,0,0,.13,1,1,1,0,0,0,.82.39,1.87,1.87,0,0,0,.65-.12,2.59,2.59,0,0,0,.64-.36l-.16.69a2.3,2.3,0,0,1-.58.26,2.18,2.18,0,0,1-.63.09,1.83,1.83,0,0,1-.73-.14,1.21,1.21,0,0,1-.53-.42,1.39,1.39,0,0,1-.26-.62,2.33,2.33,0,0,1,0-.78,2.76,2.76,0,0,1,.33-.77,2.43,2.43,0,0,1,.57-.63,2.38,2.38,0,0,1,.72-.42,2.35,2.35,0,0,1,.79-.14,1.6,1.6,0,0,1,1.08.39l-.19.61Zm-4.46,2.82-.18-1h-1.44l-.65,1h-.62L142.88,20l.83,3.88Zm-1.29-1.46h1l-.17-.85,0-.19c0-.07,0-.15,0-.23l-.12.23-.11.19-.58.85Zm-3.6,1.46.9-3.73h2l-.12.52h-1.44l-.22.92h1.44l-.13.53h-1.43l-.43,1.75h-.59Zm-1.89-1.67-.4,1.67h-.55l.89-3.73h.82a2.44,2.44,0,0,1,.55.05.62.62,0,0,1,.3.16.73.73,0,0,1,.18.35,1.5,1.5,0,0,1,0,.47,1.43,1.43,0,0,1-.38.71,1.18,1.18,0,0,1-.7.3l.84,1.7h-.67l-.8-1.67h-.06Zm.15-.47h.11a1.28,1.28,0,0,0,.65-.11.58.58,0,0,0,.24-.4c0-.2,0-.35-.06-.43a.85.85,0,0,0-.57-.13h-.11l-.26,1.07Zm-3.81,2.14.89-3.73h2l-.12.52H134l-.23.93h1.44l-.12.53h-1.44l-.29,1.2h1.44l-.13.54h-2ZM132,20.7l-.77,3.21h-.59l.77-3.21h-1l.12-.52h2.51l-.12.52Zm-6,3.21.93-3.88,1.76,2.29a1.43,1.43,0,0,1,.14.2,2.75,2.75,0,0,1,.15.25l.62-2.59h.54l-.92,3.88-1.8-2.32c-.05-.06-.09-.13-.14-.2s-.07-.15-.11-.22l-.62,2.59Zm-1.44,0,.89-3.73H126l-.89,3.73Zm-4.36-.75.53-.22a.46.46,0,0,0,.15.38.76.76,0,0,0,.88,0,.74.74,0,0,0,.26-.4c0-.22-.08-.42-.39-.58l-.11-.06a1.82,1.82,0,0,1-.67-.54.8.8,0,0,1,0-.6,1.29,1.29,0,0,1,.48-.73,1.35,1.35,0,0,1,.86-.28,1.07,1.07,0,0,1,.63.16.59.59,0,0,1,.26.46l-.51.24a.66.66,0,0,0-.18-.26.51.51,0,0,0-.28-.07.69.69,0,0,0-.41.12.59.59,0,0,0-.22.35c-.06.22.1.43.46.62l.07,0a1.52,1.52,0,0,1,.62.5.82.82,0,0,1,0,.61,1.48,1.48,0,0,1-.52.84,1.57,1.57,0,0,1-1,.31,1,1,0,0,1-.71-.22.84.84,0,0,1-.25-.65Zm-.61-2.46-.77,3.21h-.59L119,20.7h-1l.12-.52h2.51l-.12.52Zm-6,3.21.93-3.88,1.76,2.29.15.2.14.25.62-2.59h.55l-.93,3.88L115,21.74a.86.86,0,0,1-.13-.2l-.12-.22-.62,2.59Zm-2.71,0,.89-3.73h2l-.12.52H112.2l-.22.93h1.44l-.13.53h-1.44l-.29,1.2H113l-.13.54h-2Zm-1-1.84s0-.11,0-.24a1.57,1.57,0,0,0,0-.27,1.42,1.42,0,0,1-.12.25l-.17.26-1.42,2-.47-2c0-.09,0-.17,0-.24a2,2,0,0,1,0-.23,1.27,1.27,0,0,1-.07.24,1.59,1.59,0,0,1-.12.27l-.83,1.84h-.54L107.9,20l.51,2.35s0,.1,0,.19,0,.19,0,.32a4.17,4.17,0,0,1,.26-.41.64.64,0,0,0,.06-.1L110.42,20l-.06,3.88h-.54l0-1.84Zm-5.63,1.84.41-1.7-.74-2h.62l.46,1.27,0,.12c0,.06,0,.11,0,.17l.12-.17.11-.14,1.08-1.25H107l-1.73,2-.41,1.7Zm-1.47,0-.18-1h-1.44l-.65,1h-.62L102.56,20l.83,3.88Zm-1.28-1.46h1l-.17-.85c0-.06,0-.12,0-.19a1.69,1.69,0,0,1,0-.23l-.13.23-.11.19-.57.85Zm-2.59-.21-.4,1.67h-.56l.89-3.73h.89a2.56,2.56,0,0,1,.58.05.71.71,0,0,1,.29.14.69.69,0,0,1,.18.35,1,1,0,0,1,0,.48,1.43,1.43,0,0,1-.21.49,1.45,1.45,0,0,1-.35.35,1.42,1.42,0,0,1-.36.14,2.9,2.9,0,0,1-.6.05h-.33Zm.15-.5h.15a1.55,1.55,0,0,0,.68-.1.59.59,0,0,0,.26-.39.4.4,0,0,0-.07-.42,1.07,1.07,0,0,0-.62-.12h-.15l-.25,1Zm-6.4,2.17.89-3.73h.8a5,5,0,0,1,1.07.08,1.22,1.22,0,0,1,.49.27,1.26,1.26,0,0,1,.32.64,2.08,2.08,0,0,1,0,.88,2.68,2.68,0,0,1-.37.88,2.22,2.22,0,0,1-.63.63,1.68,1.68,0,0,1-.61.27,3.87,3.87,0,0,1-1,.08Zm.72-.55h.5a3.13,3.13,0,0,0,.62-.05,1.28,1.28,0,0,0,.41-.19,1.72,1.72,0,0,0,.41-.44,1.77,1.77,0,0,0,.25-.63,1.57,1.57,0,0,0,0-.63.78.78,0,0,0-.2-.45.56.56,0,0,0-.32-.18,2.57,2.57,0,0,0-.66-.06H94l-.63,2.63Zm-3.42.55.89-3.73h2l-.12.52H91.3l-.22.93h1.43l-.12.53H91l-.29,1.2H92.1L92,23.9h-2Zm-1.44,0,.89-3.73H90l-.89,3.73Zm-2.68,0,.89-3.73h2l-.12.52H87.18l-.22.92H88.4l-.13.53H86.83l-.42,1.75h-.59Zm-1.44,0,.89-3.73h.59L85,23.91Zm-4.09,0L81.21,20,83,22.32c0,.06.09.13.14.2a2.75,2.75,0,0,1,.15.25l.62-2.59h.54l-.92,3.88-1.8-2.32c0-.06-.09-.13-.14-.2s-.07-.15-.11-.22l-.62,2.59Zm3-18.2c3.25,0,6.48,0,9.72,0a1,1,0,0,1,1,1,1,1,0,0,1-.1.43,1.9,1.9,0,0,1-1.87,1.56c-3.2,0-6.41,0-9.62,0-.53,0-.55-.22-.41-.63a14.61,14.61,0,0,0,.51-1.83.61.61,0,0,1,.61-.59Zm-1.77,5.85h9.68c1.11,0,1.54,1,.89,2.08a1.92,1.92,0,0,1-1.66.95c-3.16,0-6.32,0-9.48,0-.49,0-.72-.06-.52-.62A19.47,19.47,0,0,0,81,12a.57.57,0,0,1,.55-.47Z"/><polygon class="cls-4" points="52.97 2.87 56.82 10.53 48.73 18.18 49.69 14.71 54.11 10.53 52.01 6.34 52.97 2.87"/><polygon class="cls-5" points="50.27 2.87 54.11 10.53 46.02 18.18 50.27 2.87"/><path class="cls-6" d="M.59,21.09H1L.62,22.82a.72.72,0,0,0,0,.58.53.53,0,0,0,.48.2.82.82,0,0,0,.56-.2A1.12,1.12,0,0,0,2,22.82l.41-1.73h.45l-.43,1.78a1.52,1.52,0,0,1-.49.87A1.45,1.45,0,0,1,1,24a.93.93,0,0,1-.79-.28,1,1,0,0,1-.07-.87l.42-1.78Zm42.89-3h-3L44.67,2.84h3L43.48,18.12Zm-25.29-1a1.41,1.41,0,0,1-1.35,1H1.16a1.11,1.11,0,0,1-1-.44,1.18,1.18,0,0,1-.13-1.08L3.89,2.89H6.94L3.52,15.2H15.7L19.12,2.89h3l-4,14.27ZM41.91,3.33a1.11,1.11,0,0,0-1-.44H24.21l-.83,3H38.6l-.89,3.19H22.49L20,18.19h3l1.69-6.12H38.38a2,2,0,0,0,1.21-.43,2.06,2.06,0,0,0,.74-1.08L42,4.44a1.2,1.2,0,0,0-.11-1.11ZM54.47,23.94l.68-2.85h1.56l-.09.39h-1.1l-.18.72h1.1l-.09.4h-1.1l-.22.93h1.1l-.1.41Zm0-2.16a1,1,0,0,0-.34-.25,1.22,1.22,0,0,0-.43-.08,1.24,1.24,0,0,0-.82.3,1.43,1.43,0,0,0-.47.78.92.92,0,0,0,.1.76.72.72,0,0,0,.63.3,1.37,1.37,0,0,0,.49-.09,2.24,2.24,0,0,0,.5-.27l-.13.52a1.58,1.58,0,0,1-.44.2A1.55,1.55,0,0,1,53,24a1.48,1.48,0,0,1-.57-.11,1,1,0,0,1-.4-.31,1.14,1.14,0,0,1-.2-.48,1.54,1.54,0,0,1,0-.6,2.75,2.75,0,0,1,.25-.59,2.22,2.22,0,0,1,.44-.48,1.93,1.93,0,0,1,.55-.32,1.57,1.57,0,0,1,.61-.11,1.23,1.23,0,0,1,.44.08,1.11,1.11,0,0,1,.38.22l-.14.46ZM51,23.94l-.14-.73H49.75l-.5.73h-.47l2.06-3,.64,3Zm-1-1.12h.78l-.13-.65a.78.78,0,0,0,0-.14c0-.06,0-.12,0-.18l-.09.17-.09.15-.44.65Zm-2.76,1.12.69-2.85h1.55l-.09.39H48.3l-.17.71h1.1l-.1.41H48l-.32,1.34ZM45.8,22.67,45.49,24h-.42l.68-2.86h.63a2,2,0,0,1,.42,0,.46.46,0,0,1,.24.12.57.57,0,0,1,.13.27,1,1,0,0,1-.31.9.86.86,0,0,1-.53.23L47,24h-.51l-.62-1.28Zm.11-.37H46a.86.86,0,0,0,.5-.09.39.39,0,0,0,.19-.3c0-.16,0-.27,0-.33a.67.67,0,0,0-.45-.1h-.08l-.2.82ZM43,23.94l.69-2.85h1.55l-.09.39H44l-.17.72H45l-.1.4h-1.1l-.22.93h1.1l-.1.41Zm-.49-2.46-.59,2.46h-.46l.6-2.46h-.74l.09-.39h1.93l-.1.39Zm-4.62,2.46.71-3,1.35,1.75a.91.91,0,0,1,.11.16,1.6,1.6,0,0,1,.11.19l.48-2h.42l-.72,3L39,22.27l-.1-.15L38.77,22l-.47,2Zm-1.11,0,.69-2.85h.45l-.68,2.85Zm-3.34-.57.4-.17a.34.34,0,0,0,.12.29.45.45,0,0,0,.33.1.5.5,0,0,0,.34-.11.54.54,0,0,0,.2-.31q.06-.26-.3-.45l-.08,0a1.37,1.37,0,0,1-.51-.42.59.59,0,0,1,0-.46,1,1,0,0,1,.37-.56,1.09,1.09,0,0,1,.66-.22.85.85,0,0,1,.48.12.5.5,0,0,1,.21.35l-.4.19a.6.6,0,0,0-.14-.2.37.37,0,0,0-.21-.06.58.58,0,0,0-.32.1.46.46,0,0,0-.17.26c0,.18.08.34.36.49l.05,0a1.14,1.14,0,0,1,.47.39.58.58,0,0,1,0,.46,1.11,1.11,0,0,1-.41.65,1.14,1.14,0,0,1-.73.24.79.79,0,0,1-.54-.16.7.7,0,0,1-.18-.5ZM33,21.48l-.58,2.46h-.46l.6-2.46h-.74l.09-.39h1.93l-.09.39Zm-4.61,2.46.71-3,1.35,1.75c0,.05.07.1.1.16a1.57,1.57,0,0,1,.12.19l.47-2h.42l-.71,3-1.38-1.78a1.3,1.3,0,0,1-.1-.15,1.4,1.4,0,0,1-.09-.17l-.48,2Zm-2.08,0,.68-2.85H28.5l-.1.39H27.3l-.17.72h1.1l-.09.4H27l-.23.93h1.1l-.1.41Zm-.75-1.41a1.74,1.74,0,0,1,0-.18q0-.12,0-.21l-.1.2-.12.19-1.1,1.53-.36-1.56,0-.18a1.09,1.09,0,0,1,0-.18l-.06.19c0,.07-.05.13-.09.21L23,23.94h-.42L24,21l.39,1.81s0,.07,0,.14,0,.15,0,.24a3,3,0,0,1,.2-.31l.05-.08L25.93,21l0,3h-.41l0-1.41Zm-4.32,1.41.31-1.3-.57-1.55h.48l.35,1,0,.09,0,.13.09-.13L22,22l.82-.95h.46L22,22.64l-.32,1.3Zm-1.13,0-.14-.73H18.81l-.49.73h-.48l2.06-3,.64,3Zm-1-1.12h.78l-.13-.65a.78.78,0,0,0,0-.14c0-.06,0-.12,0-.18a.91.91,0,0,1-.09.17l-.09.15-.44.65Zm-2-.16L16.78,24h-.42L17,21.09h.69a2.29,2.29,0,0,1,.44,0,.65.65,0,0,1,.22.11.5.5,0,0,1,.14.27.79.79,0,0,1,0,.37,1.06,1.06,0,0,1-.16.38,1,1,0,0,1-.27.27,1.09,1.09,0,0,1-.27.11,2.69,2.69,0,0,1-.46,0Zm.12-.38h.11a1.21,1.21,0,0,0,.52-.08.44.44,0,0,0,.2-.3.3.3,0,0,0-.05-.32.74.74,0,0,0-.47-.1H17.4l-.19.8Zm-4.92,1.66L13,21.09h.61a3.69,3.69,0,0,1,.82.06.86.86,0,0,1,.38.2.92.92,0,0,1,.25.49,1.79,1.79,0,0,1,0,.68,2.18,2.18,0,0,1-.29.68,1.83,1.83,0,0,1-.48.48,1.37,1.37,0,0,1-.46.21A3.47,3.47,0,0,1,13,24h-.74Zm.56-.42h.38a2,2,0,0,0,.48,0,1.23,1.23,0,0,0,.31-.14,1.07,1.07,0,0,0,.32-.35,1.7,1.7,0,0,0,.23-1,.69.69,0,0,0-.15-.35.56.56,0,0,0-.25-.14,2.11,2.11,0,0,0-.51,0h-.32l-.49,2Zm-2.63.42.68-2.85h1.56l-.1.39h-1.1l-.17.72h1.1l-.09.4H11l-.23.93h1.1l-.1.41Zm-1.11,0,.69-2.85h.45l-.68,2.85Zm-2,0,.68-2.85H9.3l-.09.39H8.11l-.18.71H9l-.09.41H7.84l-.33,1.34Zm-1.1,0,.68-2.85H7.1l-.69,2.85Zm-3.14,0,.71-3,1.35,1.75a.91.91,0,0,1,.11.16,1.6,1.6,0,0,1,.11.19l.48-2H6l-.72,3L3.91,22.27l-.1-.15A.7.7,0,0,1,3.72,22l-.48,2Z"/><line class="cls-7" x1="67" x2="67" y2="28.78"/></g></g></g></svg>